<svg width="251" height="200" viewBox="0 0 251 200" fill="none" xmlns="http://www.w3.org/2000/svg">
<path d="M214 46.667H240.333C244.751 46.667 248.333 50.2487 248.333 54.667V168C248.333 172.419 244.751 176 240.333 176H164.666" stroke="white" stroke-width="4"/>
<path d="M247.731 76.7441H213.333" stroke="white" stroke-width="4"/>
<path d="M36.3333 46.667H10C5.58172 46.667 2 50.2487 2 54.667V168C2 172.419 5.58171 176 9.99999 176H85.6667" stroke="white" stroke-width="4"/>
<path d="M2.60156 76.7441H37" stroke="white" stroke-width="4"/>
<path opacity="0.16" d="M79.7821 22H170.884C170.884 34.0545 183.666 46.8177 195.333 46.8177V77.2676C195.333 99.1487 188.84 120.218 176.554 138.198C164.269 156.177 147.103 169.733 126.914 177.4L125.333 178L123.753 177.4C103.563 169.733 86.3977 156.177 74.1121 138.198C61.8264 120.218 55.333 99.1487 55.333 77.2676V46.8177C65.9391 46.8177 79.7821 34.7636 79.7821 22Z" fill="#FF9148"/>
<path d="M170.666 128.232C167.345 125.909 163.47 123.764 159.226 121.986C146.889 116.816 134.038 116.299 134.552 112.68C135.066 109.061 142.777 104.408 147.403 97.6867C152.03 90.9656 152.544 85.2786 152.544 85.2786C152.544 85.2786 156.142 83.2105 156.656 79.0745C157.17 74.9384 154.6 73.9044 153.058 73.3874C151.516 72.8704 150.487 73.3874 150.487 73.3874C150.487 73.3874 156.656 41.333 124.785 41.333C94.9699 41.333 99.5963 73.3874 99.5963 73.3874C99.5963 73.3874 98.5682 72.8704 97.0261 73.3874C95.4839 73.9044 92.9137 74.9384 93.4277 79.0745C93.9418 83.7276 97.0261 85.7956 97.0261 85.7956C97.0261 85.7956 97.5401 91.4826 102.167 98.2037C106.793 104.925 114.504 109.578 115.018 113.197C115.532 116.816 102.681 117.333 90.3434 122.503C85.2857 124.623 82.8788 125.493 79.333 128.232" stroke="#FF9148" stroke-width="4" stroke-miterlimit="10" stroke-linecap="round" stroke-linejoin="round"/>
<path d="M126.22 93.3264C126.22 92.1131 125.287 91.2264 124.12 91.2264C123 91.2264 122.16 92.1598 122.16 93.3264C122.16 94.3998 123.047 95.3331 124.12 95.3331C125.24 95.3331 126.22 94.4464 126.22 93.3264ZM127.154 76.3398C124.634 78.7198 122.674 80.9131 122.814 84.6464L122.907 87.4464C122.954 88.2864 123.42 88.7064 124.12 88.7064C124.634 88.7064 125.287 88.2864 125.334 87.4464L125.52 84.6464C125.707 81.7531 127.2 80.1198 129.16 78.2998C131.82 75.9664 133.64 73.9131 133.64 70.1798C133.64 65.1398 129.394 62.1064 124.587 62.1064C122.254 62.1064 119.64 62.8998 117.774 64.3464C117.447 64.6264 117.167 65.0464 117.167 65.5131C117.167 66.5864 118.38 67.2398 119.22 66.6331C120.807 65.5131 122.767 64.8131 124.634 64.8131C127.9 64.8131 130.654 66.8664 130.654 70.2731C130.654 73.0264 128.974 74.5198 127.154 76.3398Z" fill="white"/>
<path d="M123.343 197.36L123.343 197.36C97.7702 187.677 76.0279 170.557 60.4613 147.841C44.8946 125.124 36.667 98.5068 36.667 70.8559V33.8176H40.4666C55.7288 33.8176 68.1016 21.2598 68.1016 5.87031V2H181.232V5.87031C181.232 21.259 193.604 33.8176 208.867 33.8176H212.667V70.8559C212.667 98.5068 204.439 125.124 188.873 147.841C173.307 170.557 151.565 187.677 125.991 197.36L124.667 197.861L123.343 197.36Z" stroke="#FF9148" stroke-width="4"/>
</svg>
