<svg width="282" height="204" viewBox="0 0 282 204" fill="none" xmlns="http://www.w3.org/2000/svg">
<path d="M240.719 79.9137V10C240.719 5.58172 237.137 2 232.719 2H10C5.58172 2 2 5.58172 2 10V158.375C2 162.793 5.58173 166.375 10 166.375H157.499" stroke="white" stroke-width="4"/>
<path opacity="0.16" fill-rule="evenodd" clip-rule="evenodd" d="M228.18 48.6826H15.8076V153.225H155.855V149.937H156.009C155.907 149.504 155.855 149.065 155.855 148.622C155.855 140.426 173.654 133.753 196.62 133.507V94.0498H196.658C196.633 93.8318 196.62 93.6126 196.62 93.3922C196.62 86.3304 209.833 80.3992 228.18 78.7353V48.6826Z" fill="#FF9148"/>
<path d="M2.34082 34.7388H239.33" stroke="white" stroke-width="4"/>
<circle cx="17.6871" cy="18.3693" r="3.41027" fill="#FF9148"/>
<circle cx="33.3746" cy="18.3693" r="3.41027" fill="#FF9148"/>
<circle cx="49.0616" cy="18.3693" r="3.41027" fill="#FF9148"/>
<path d="M91.4199 90.4339L112.131 111.145L158.156 65.1201" stroke="#FF9148" stroke-width="5"/>
<path d="M198.62 93.3925C198.62 94.6826 199.326 96.1662 201.181 97.7632C203.032 99.3564 205.834 100.883 209.491 102.205C216.788 104.843 227.066 106.515 238.7 106.515C250.333 106.515 260.612 104.843 267.909 102.205C271.566 100.883 274.368 99.3564 276.218 97.7632C278.073 96.1662 278.78 94.6826 278.78 93.3925C278.78 92.1024 278.073 90.6189 276.218 89.0218C274.368 87.4287 271.566 85.9021 267.909 84.5802C260.612 81.9422 250.333 80.27 238.7 80.27C227.066 80.27 216.788 81.9422 209.491 84.5802C205.834 85.9021 203.032 87.4287 201.181 89.0218C199.326 90.6189 198.62 92.1024 198.62 93.3925Z" stroke="#FF9148" stroke-width="4"/>
<path d="M279.365 92.5352C279.365 95.9267 279.365 108.365 279.365 111.995C279.365 119.746 261.143 126.029 238.666 126.029C216.189 126.029 197.968 119.746 197.968 111.995V92.5352" stroke="#FF9148" stroke-width="4"/>
<path d="M157.855 148.622C157.855 149.913 158.561 151.396 160.416 152.993C162.267 154.586 165.069 156.113 168.725 157.435C176.023 160.073 186.301 161.745 197.935 161.745C209.568 161.745 219.846 160.073 227.144 157.435C230.801 156.113 233.603 154.586 235.453 152.993C237.308 151.396 238.015 149.913 238.015 148.622C238.015 147.332 237.308 145.849 235.453 144.252C233.603 142.659 230.801 141.132 227.144 139.81C219.846 137.172 209.568 135.5 197.935 135.5C186.301 135.5 176.023 137.172 168.725 139.81C165.069 141.132 162.267 142.659 160.416 144.252C158.561 145.849 157.855 147.332 157.855 148.622Z" stroke="#FF9148" stroke-width="4"/>
<path d="M238.667 148.157C238.667 151.548 238.667 163.987 238.667 167.617C238.667 175.368 220.445 181.651 197.968 181.651C175.491 181.651 157.27 175.368 157.27 167.617V148.157" stroke="#FF9148" stroke-width="4"/>
<path d="M238.667 168.506C238.667 171.897 238.667 184.336 238.667 187.966C238.667 195.717 220.445 202 197.968 202C175.491 202 157.27 195.717 157.27 187.966V168.506" stroke="#FF9148" stroke-width="4"/>
<path d="M197.968 135.947V112.885M238.666 146.379C261.143 146.379 279.365 140.096 279.365 132.345C279.365 128.715 279.365 116.276 279.365 112.885" stroke="#FF9148" stroke-width="4"/>
<path d="M238.666 166.728C261.143 166.728 279.365 160.444 279.365 152.694C279.365 149.064 279.365 136.625 279.365 133.233" stroke="#FF9148" stroke-width="4"/>
<path d="M238.666 187.077C261.143 187.077 279.365 180.794 279.365 173.043C279.365 169.413 279.365 156.974 279.365 153.583" stroke="#FF9148" stroke-width="4"/>
</svg>
